<svg xmlns="http://www.w3.org/2000/svg" viewBox="0 0 1440 320"><path fill="#c70000" fill-opacity="1" d="M0,0L30,53.3C60,107,120,213,180,234.7C240,256,300,192,360,186.7C420,181,480,235,540,256C600,277,660,267,720,218.7C780,171,840,85,900,42.7C960,0,1020,0,1080,42.7C1140,85,1200,171,1260,213.3C1320,256,1380,256,1410,256L1440,256L1440,0L1410,0C1380,0,1320,0,1260,0C1200,0,1140,0,1080,0C1020,0,960,0,900,0C840,0,780,0,720,0C660,0,600,0,540,0C480,0,420,0,360,0C300,0,240,0,180,0C120,0,60,0,30,0L0,0Z"></path></svg>
