<svg xmlns="http://www.w3.org/2000/svg" viewBox="0 0 1440 320"> <path fill="#c70000" fill-opacity="1" d="M0,96L30,90.7C60,85,120,75,180,74.7C240,75,300,85,360,128C420,171,480,245,540,250.7C600,256,660,192,720,186.7C780,181,840,235,900,224C960,213,1020,139,1080,101.3C1140,64,1200,64,1260,90.7C1320,117,1380,171,1410,197.3L1440,224L1440,320L1410,320C1380,320,1320,320,1260,320C1200,320,1140,320,1080,320C1020,320,960,320,900,320C840,320,780,320,720,320C660,320,600,320,540,320C480,320,420,320,360,320C300,320,240,320,180,320C120,320,60,320,30,320L0,320Z"></path> </svg>
